
<svg xmlns="http://www.w3.org/2000/svg" width="46" height="46" viewBox="0 0 48 48">
  <path fill="#4285F4" d="M24 9.5c3.15 0 5.82 1.06 7.97 2.81l5.95-5.95C33.13 2.46 28.89 0 24 0 14.84 0 7.08 6.4 3.94 15.09l7.28 5.66C12.66 13.6 17.91 9.5 24 9.5z"/>
  <path fill="#34A853" d="M46.12 24.5c0-1.56-.14-3.06-.41-4.5H24v8.51h12.46c-.53 2.9-2.18 5.35-4.63 7.01l7.2 5.6c4.2-3.88 6.61-9.61 6.61-16.62z"/>
  <path fill="#FBBC05" d="M11.22 28.44c-.58-1.71-.91-3.54-.91-5.44s.33-3.73.91-5.44l-7.28-5.66C1.41 15.45 0 19.56 0 24s1.41 8.55 3.94 12.1l7.28-5.66z"/>
  <path fill="#EA4335" d="M24 48c5.89 0 10.83-1.95 14.43-5.29l-7.2-5.6c-1.99 1.34-4.55 2.13-7.23 2.13-6.09 0-11.34-4.1-13.22-9.64l-7.28 5.66C7.08 41.6 14.84 48 24 48z"/>
  <path fill="none" d="M0 0h48v48H0z"/>
</svg>
